<svg width="104" height="109" viewBox="0 0 104 109" fill="none" xmlns="http://www.w3.org/2000/svg">
<g clip-path="url(#clip0_828_9814)">
<path d="M30.0763 98.4329C40.1867 94.5094 49.6143 89.0171 58.0117 82.1583C66.2476 75.4338 73.4726 67.5607 79.4646 58.7808C91.3842 41.5902 97.8239 21.2014 97.9387 0.290211C95.7684 20.4484 87.5339 39.4766 74.3208 54.8656C61.7567 69.9327 44.9183 80.8432 26.0248 86.1593L30.0763 98.4329Z" fill="#0FA674"/>
<path d="M27.4775 74.892L5.1902 99.8492L37.9484 106.655L27.4775 74.892Z" fill="#0FA674"/>
<path d="M38.4671 99.9741C44.1627 98.2146 49.6139 95.7455 54.692 92.625C59.8188 89.5416 64.6188 85.9457 69.0181 81.8929C71.2508 79.8813 73.2796 77.6872 75.3074 75.477C76.2963 74.3571 77.1832 73.1459 78.1211 71.9804L79.5311 70.2885L80.7693 68.4123C81.573 67.1572 82.4259 65.9157 83.2126 64.6455L85.3061 60.688C85.6252 60.0246 85.9926 59.3587 86.2956 58.6962L87.1348 56.6159C87.6728 55.2302 88.1946 53.8453 88.6995 52.4453C87.8746 53.7069 87.087 54.961 86.3367 56.2077L85.196 58.0947C84.7928 58.698 84.3565 59.2871 83.9373 59.8913L81.4359 63.4837L78.7288 66.8614C75.1171 71.405 71.1398 75.6461 66.8367 79.5425C62.5618 83.4876 58.0469 87.1649 53.3177 90.5532C48.5323 93.9456 43.5756 97.09 38.4671 99.9741Z" fill="#FFCC01"/>
<path d="M93.5263 0.242134C90.3511 10.1035 87.0759 19.6151 83.0786 28.9242C81.1037 33.5694 78.8469 38.0848 76.4568 42.5268C73.9377 46.9502 71.1672 51.2261 68.1591 55.3334C72.1621 52.0138 75.6763 48.1466 78.5977 43.8461C81.4812 39.5277 83.9723 34.9602 86.0412 30.1984C88.0558 25.4234 89.7194 20.5081 91.0187 15.4915C92.3415 10.5003 93.1812 5.39371 93.5263 0.242134Z" fill="#FFCC01"/>
</g>
<defs>
<clipPath id="clip0_828_9814">
<rect width="103.204" height="98.088" fill="white" transform="matrix(0.0548406 0.998495 0.998495 -0.0548406 0 5.37891)"/>
</clipPath>
</defs>
</svg>
